<svg viewBox="0 0 686.93 472.61" xmlns="http://www.w3.org/2000/svg"><path d="M685.53 220.8a8.422 8.422 0 0 0-1.001-1.937 8.474 8.474 0 0 0-1.457-1.624 6.537 6.537 0 0 0-1.761-1.096l-285.35-116.35c-.417-.173-.84-.395-1.271-.671s-.87-.607-1.32-1a17.33 17.33 0 0 1-1.388-1.367 26.369 26.369 0 0 1-1.471-1.772 36.373 36.373 0 0 1-2.291-3.42 58.051 58.051 0 0 1-2.303-4.277 77.454 77.454 0 0 1-2.23-5.022 93.128 93.128 0 0 1-2.071-5.657 113.212 113.212 0 0 1-1.858-6.186 124.403 124.403 0 0 1-1.585-6.602 129.04 129.04 0 0 1-1.268-6.919c-.364-2.35-.667-4.735-.9-7.138a113.204 113.204 0 0 1-.541-9.219c-.049-2.933.03-5.71.226-8.301.195-2.595.506-5.003.921-7.193.415-2.193.935-4.168 1.544-5.892.303-.862.629-1.66.973-2.392s.706-1.398 1.083-1.996c.376-.599.767-1.129 1.167-1.589.4-.46.811-.851 1.226-1.17a6.824 6.824 0 0 1 .901-.581c-123.46 65.965-246.9 131.93-370.35 197.89a3.709 3.709 0 0 0-.381.232 5.593 5.593 0 0 0-.377.286c-.344.292-.675.662-.988 1.106s-.609.963-.884 1.555a16.157 16.157 0 0 0-.757 1.995 23.887 23.887 0 0 0-.608 2.425c-.355 1.756-.597 3.787-.716 6.061-.12 2.27-.118 4.78.012 7.5.13 2.715.389 5.639.783 8.742.394 3.096.924 6.369 1.597 9.789a170.04 170.04 0 0 0 1.678 7.628 175.703 175.703 0 0 0 4.23 14.571 160.88 160.88 0 0 0 2.442 6.725 134.55 134.55 0 0 0 2.575 6.189 114.816 114.816 0 0 0 2.644 5.539 85.944 85.944 0 0 0 2.623 4.761 53.754 53.754 0 0 0 2.511 3.859c.544.754 1.063 1.43 1.562 2.031.499.603.977 1.132 1.437 1.596.46.464.904.861 1.333 1.201.429.34.843.62 1.247.85l279.72 156.76c.617.346 1.223.82 1.791 1.381.567.562 1.097 1.21 1.56 1.904.463.693.859 1.434 1.163 2.179.303.744.513 1.493.601 2.205a5.5 5.5 0 0 1 .038.993 3.526 3.526 0 0 1-.143.824 2.33 2.33 0 0 1-.308.644 1.753 1.753 0 0 1-.457.452c121.87-81.857 243.74-163.72 365.6-245.58.2-.135.381-.299.538-.49.157-.191.292-.41.4-.654.108-.244.19-.513.244-.806.053-.292.077-.608.069-.945a6.449 6.449 0 0 0-.397-2.032z"/><path d="M297.16 394.96a165.9 165.9 0 0 0 2.008 12.109 171.05 171.05 0 0 0 2.846 11.803 165.409 165.409 0 0 0 3.587 11.284 148.567 148.567 0 0 0 4.236 10.558c.443.986.894 1.96 1.353 2.921.459.96.927 1.906 1.403 2.839.477.933.961 1.852 1.455 2.755.494.904.996 1.793 1.508 2.667l-273.49-152.13c-.407-.229-.824-.51-1.256-.85s-.877-.738-1.34-1.203c-.463-.465-.943-.995-1.444-1.599s-1.022-1.28-1.568-2.037c-.812-1.124-1.656-2.421-2.52-3.869s-1.745-3.047-2.63-4.776-1.772-3.588-2.648-5.556a135.658 135.658 0 0 1-2.576-6.212 159.14 159.14 0 0 1-2.439-6.748 176.155 176.155 0 0 1-4.215-14.625 169.914 169.914 0 0 1-1.665-7.659 146.082 146.082 0 0 1-1.575-9.83 111.625 111.625 0 0 1-.758-8.78c-.122-2.733-.114-5.255.016-7.536.129-2.285.38-4.326.746-6.091.18-.884.389-1.697.623-2.438.234-.742.493-1.411.772-2.006.28-.596.581-1.118.898-1.565a6.045 6.045 0 0 1 1.001-1.114c.354-.295.714-.518 1.08-.671s.738-.239 1.117-.261c.38-.022.767.02 1.161.12.395.1.798.259 1.211.472l278.84 144.79a18.511 18.511 0 0 0-1.859 2.719 26.447 26.447 0 0 0-1.553 3.284 37.378 37.378 0 0 0-1.26 3.805 52.341 52.341 0 0 0-.978 4.284 69.51 69.51 0 0 0-.878 6.67 93.034 93.034 0 0 0-.321 7.462c-.012 2.609.072 5.341.256 8.183.184 2.836.467 5.785.854 8.833z" fill="#3f973e"/><path d="M297.16 394.96a165.9 165.9 0 0 0 2.008 12.109 171.05 171.05 0 0 0 2.846 11.803 165.409 165.409 0 0 0 3.587 11.284 148.567 148.567 0 0 0 4.236 10.558c.443.986.894 1.96 1.353 2.921.459.96.927 1.906 1.403 2.839.477.933.961 1.852 1.455 2.755.494.904.996 1.793 1.508 2.667l-273.49-152.13c-.407-.229-.824-.51-1.256-.85s-.877-.738-1.34-1.203c-.463-.465-.943-.995-1.444-1.599s-1.022-1.28-1.568-2.037c-.812-1.124-1.656-2.421-2.52-3.869s-1.745-3.047-2.63-4.776-1.772-3.588-2.648-5.556a135.658 135.658 0 0 1-2.576-6.212 159.14 159.14 0 0 1-2.439-6.748 176.155 176.155 0 0 1-4.215-14.625 169.914 169.914 0 0 1-1.665-7.659 146.082 146.082 0 0 1-1.575-9.83 111.625 111.625 0 0 1-.758-8.78c-.122-2.733-.114-5.255.016-7.536.129-2.285.38-4.326.746-6.091.18-.884.389-1.697.623-2.438.234-.742.493-1.411.772-2.006.28-.596.581-1.118.898-1.565a6.045 6.045 0 0 1 1.001-1.114c.354-.295.714-.518 1.08-.671s.738-.239 1.117-.261c.38-.022.767.02 1.161.12.395.1.798.259 1.211.472l278.84 144.79a18.511 18.511 0 0 0-1.859 2.719 26.447 26.447 0 0 0-1.553 3.284 37.378 37.378 0 0 0-1.26 3.805 52.341 52.341 0 0 0-.978 4.284 69.51 69.51 0 0 0-.878 6.67 93.034 93.034 0 0 0-.321 7.462c-.012 2.609.072 5.341.256 8.183.184 2.836.467 5.785.854 8.833z" fill="#fff"/><path d="M378.6 15.184a5.861 5.861 0 0 0-1.046-.289 4.755 4.755 0 0 0-1.035-.068 4.51 4.51 0 0 0-1.032.169 5.183 5.183 0 0 0-1.032.422c-118.07 63.111-236.13 126.22-354.2 189.33.298-.159.6-.271.906-.338.307-.068.618-.091.934-.072s.638.079.965.178c.327.1.66.238.999.413l278.84 144.79 360.36-226.92-284.66-107.61z" fill="#3f973e"/><path d="M664.59 216.43a83.092 83.092 0 0 1-2.454-5.015 90.391 90.391 0 0 1-1.133-2.635 106.149 106.149 0 0 1-3.396-9.6 120.807 120.807 0 0 1-2.625-10.368 129.317 129.317 0 0 1-1.778-10.945 131.303 131.303 0 0 1-.854-11.33c-.088-2.864-.076-5.645.03-8.33.105-2.689.307-5.284.597-7.773a84.762 84.762 0 0 1 1.135-7.148 67.216 67.216 0 0 1 1.644-6.453 53.497 53.497 0 0 1 1.496-4.189 41.198 41.198 0 0 1 1.743-3.764 31.403 31.403 0 0 1 2-3.299 23.99 23.99 0 0 1 2.264-2.795l-360.36 226.92a18.509 18.509 0 0 0-1.859 2.719 26.447 26.447 0 0 0-1.553 3.284 37.378 37.378 0 0 0-1.26 3.805 52.341 52.341 0 0 0-.978 4.284 69.51 69.51 0 0 0-.878 6.67 93.035 93.035 0 0 0-.321 7.462c-.012 2.609.072 5.341.256 8.183.184 2.838.467 5.786.854 8.834a165.9 165.9 0 0 0 2.008 12.109 171.05 171.05 0 0 0 2.846 11.803 165.409 165.409 0 0 0 3.587 11.284 148.567 148.567 0 0 0 4.236 10.558 122.989 122.989 0 0 0 2.756 5.76c.477.933.961 1.852 1.455 2.755.494.904.996 1.793 1.508 2.667l350.36-233.08a74.687 74.687 0 0 1-1.324-2.374z" fill="#e2e3e4"/><path d="M683.05 115.13a8.585 8.585 0 0 0-1.028-1.996 8.336 8.336 0 0 0-1.495-1.644 6.256 6.256 0 0 0-1.808-1.071L386.699 1.739a11.996 11.996 0 0 0-2.235-.602c-.724-.118-1.425-.157-2.102-.122a8.961 8.961 0 0 0-3.75 1.039c-123.69 65.605-247.39 131.21-371.08 196.81a6.028 6.028 0 0 1 1.565-.57 6.55 6.55 0 0 1 1.761-.127c.619.035 1.27.151 1.95.354a12.26 12.26 0 0 1 2.13.877l285.76 148.46c.632.329 1.254.795 1.837 1.357a11.89 11.89 0 0 1 1.604 1.933c.477.712.886 1.477 1.199 2.254.313.776.531 1.563.625 2.319.05.405.062.78.04 1.123-.023.343-.08.653-.169.93a2.543 2.543 0 0 1-.358.723 1.922 1.922 0 0 1-.528.499c125.69-79.508 251.38-159.01 377.07-238.51.229-.145.437-.325.618-.536.181-.211.336-.455.461-.728.125-.273.221-.574.282-.902.062-.328.091-.682.082-1.06a6.874 6.874 0 0 0-.41-2.127z"/><path d="m14.937 199.4 285.76 148.46c.632.329 1.254.795 1.837 1.357a11.89 11.89 0 0 1 1.604 1.933c.477.712.886 1.477 1.199 2.254.313.776.531 1.563.625 2.319.094.757.055 1.409-.096 1.942-.151.533-.413.946-.766 1.224-.353.277-.796.419-1.309.408-.513-.01-1.095-.172-1.726-.503l-285.15-149.28a5.701 5.701 0 0 0-1.201-.473 3.752 3.752 0 0 0-1.151-.123 3.305 3.305 0 0 0-1.105.257 4.2 4.2 0 0 0-1.067.665c-.344.292-.675.662-.988 1.106s-.609.963-.884 1.555a16.157 16.157 0 0 0-.757 1.995 23.887 23.887 0 0 0-.608 2.425c-.355 1.756-.597 3.787-.716 6.061-.12 2.27-.118 4.78.012 7.5.13 2.715.389 5.639.783 8.742.394 3.096.924 6.369 1.597 9.789a170.04 170.04 0 0 0 1.678 7.628 175.703 175.703 0 0 0 4.23 14.571 160.88 160.88 0 0 0 2.442 6.725 134.55 134.55 0 0 0 2.575 6.189 114.816 114.816 0 0 0 2.644 5.539 85.944 85.944 0 0 0 2.623 4.761 53.754 53.754 0 0 0 2.511 3.859c.544.754 1.063 1.43 1.562 2.031.499.603.977 1.132 1.437 1.596.46.464.904.861 1.333 1.201.429.34.843.62 1.247.85l279.72 156.76c.617.346 1.223.82 1.791 1.381.567.562 1.097 1.21 1.56 1.904.463.693.859 1.434 1.163 2.179.303.744.513 1.493.601 2.205.088.712.047 1.319-.103 1.808-.15.489-.408.859-.754 1.097-.346.238-.781.342-1.282.301-.501-.041-1.07-.229-1.686-.576l-279.16-157.49a20.656 20.656 0 0 1-2.701-1.845 31.599 31.599 0 0 1-2.689-2.432 44.257 44.257 0 0 1-2.633-2.918 57.182 57.182 0 0 1-2.533-3.305c-.831-1.161-1.645-2.375-2.443-3.637s-1.581-2.572-2.348-3.927a112.526 112.526 0 0 1-2.257-4.191 136.623 136.623 0 0 1-2.168-4.434 161.927 161.927 0 0 1-4.058-9.517 184.79 184.79 0 0 1-3.645-10.242 195.239 195.239 0 0 1-5.696-21.896 170.81 170.81 0 0 1-1.41-8.152 140.53 140.53 0 0 1-.914-7.589c-.223-2.43-.364-4.753-.426-6.958a81.006 81.006 0 0 1 .054-6.259c.103-1.959.28-3.794.538-5.488.258-1.696.597-3.251 1.021-4.648.425-1.399.935-2.639 1.537-3.704.603-1.066 1.297-1.957 2.088-2.655.523-.463 1.098-.833 1.724-1.1s1.303-.428 2.028-.474a7.703 7.703 0 0 1 2.318.227c.819.203 1.684.533 2.593 1.005z" fill="#3f3f3f"/></svg>